<svg xmlns="http://www.w3.org/2000/svg" viewBox="0 0 64 64">
  <!-- Gold rounded square background -->
  <rect width="64" height="64" rx="14" fill="#C8821D"/>
  
  <!-- Open book icon -->
  <g fill="white" stroke="white" stroke-width="2.5" stroke-linejoin="round" stroke-linecap="round">
    <!-- Book base -->
    <path d="M14 18 Q14 16 16 16 L30 16 Q32 16 32 18 L32 46 Q32 48 30 48 L16 48 Q14 48 14 46 Z" fill="white" fill-opacity="0.95"/>
    <path d="M32 18 Q32 16 34 16 L48 16 Q50 16 50 18 L50 46 Q50 48 48 48 L34 48 Q32 48 32 46 Z" fill="white" fill-opacity="0.95"/>
    <!-- Spine -->
    <line x1="32" y1="16" x2="32" y2="48" stroke="#C8821D" stroke-width="2"/>
    <!-- Lines on left page -->
    <line x1="18" y1="24" x2="28" y2="24" stroke="#C8821D" stroke-width="1.8"/>
    <line x1="18" y1="30" x2="28" y2="30" stroke="#C8821D" stroke-width="1.8"/>
    <line x1="18" y1="36" x2="26" y2="36" stroke="#C8821D" stroke-width="1.8"/>
    <!-- Star on right page -->
    <path d="M41 24 L42.5 27.5 L46 28 L43.5 30.5 L44 34 L41 32.5 L38 34 L38.5 30.5 L36 28 L39.5 27.5 Z" fill="#C8821D" stroke="#C8821D"/>
  </g>
</svg>